<?xml version="1.0" encoding="UTF-8"?>
<svg version="1.1" xmlns="http://www.w3.org/2000/svg" width="64" height="64">
<path d="M0 0 C1.36928469 1.21686432 2.71818181 2.45732118 4.0390625 3.7265625 C5.80441411 5.43881648 5.80441411 5.43881648 8.765625 6.21484375 C14.42761161 12.84745664 13.1623709 21.01272957 12.765625 29.21484375 C12.73339844 30.22160156 12.70117188 31.22835937 12.66796875 32.265625 C12.35197442 37.60511899 11.40286606 41.05799682 7.765625 45.21484375 C6.43445438 45.88581842 5.10096785 46.55221135 3.765625 47.21484375 C2.63384156 48.1619539 1.52952717 49.14273503 0.453125 50.15234375 C-5.72851874 55.5794828 -12.7931677 57.58026197 -20.99609375 57.42578125 C-29.201817 56.65246702 -35.02590051 53.42020227 -41.234375 48.21484375 C-41.9253125 47.69664063 -42.61625 47.1784375 -43.328125 46.64453125 C-47.35417303 43.62499523 -49.66385092 41.02201312 -51.234375 36.21484375 C-51.96899736 28.06917816 -51.0969524 20.14707899 -49.234375 12.21484375 C-48.96625 11.05984375 -48.698125 9.90484375 -48.421875 8.71484375 C-46.89408643 5.49844676 -45.36164855 4.84955492 -42.234375 3.21484375 C-40.873125 2.00828125 -40.873125 2.00828125 -39.484375 0.77734375 C-28.20213757 -8.84745159 -11.60184105 -9.26930307 0 0 Z M10.765625 14.21484375 C11.765625 16.21484375 11.765625 16.21484375 11.765625 16.21484375 Z M-50.234375 34.21484375 C-49.234375 36.21484375 -49.234375 36.21484375 -49.234375 36.21484375 Z " fill="#B5842B" transform="translate(51.234375,6.78515625)"/>
<path d="M0 0 C1.32 0 2.64 0 4 0 C4.50833591 1.24663331 5.00631145 2.49749387 5.5 3.75 C5.7784375 4.44609375 6.056875 5.1421875 6.34375 5.859375 C7 8 7 8 7 12 C6.34 12 5.68 12 5 12 C4.67 11.34 4.34 10.68 4 10 C2.68 10 1.36 10 0 10 C-0.33 10.66 -0.66 11.32 -1 12 C-1.66 12 -2.32 12 -3 12 C-2.49202991 7.6822542 -1.80317221 3.96697886 0 0 Z " fill="#2F2310" transform="translate(24,26)"/>
<path d="M0 0 C2.64 0 5.28 0 8 0 C8 0.66 8 1.32 8 2 C6.35 2 4.7 2 3 2 C3 2.99 3 3.98 3 5 C4.65 5 6.3 5 8 5 C8 5.66 8 6.32 8 7 C6.35 7 4.7 7 3 7 C3 7.99 3 8.98 3 10 C4.65 10 6.3 10 8 10 C8 10.66 8 11.32 8 12 C5.36 12 2.72 12 0 12 C0 8.04 0 4.08 0 0 Z " fill="#1E180D" transform="translate(46,26)"/>
<path d="M0 0 C2.33944736 0.28730055 4.6739143 0.61936779 7 1 C7 1.66 7 2.32 7 3 C4.03 2.505 4.03 2.505 1 2 C2.39195915 4.7839183 4.15575779 4.97898997 7 6 C7 7.65 7 9.3 7 11 C4.69 11.33 2.38 11.66 0 12 C-0.66 10.68 -1.32 9.36 -2 8 C0.97 8.495 0.97 8.495 4 9 C1.22739701 7.06201737 1.22739701 7.06201737 -1 6 C-1.042721 4.33388095 -1.04063832 2.66617115 -1 1 C-0.67 0.67 -0.34 0.34 0 0 Z " fill="#19140D" transform="translate(36,26)"/>
<path d="M0 0 C2.64 0 5.28 0 8 0 C8 0.66 8 1.32 8 2 C6.02 2 4.04 2 2 2 C2 2.99 2 3.98 2 5 C3.98 5 5.96 5 8 5 C8 5.66 8 6.32 8 7 C6.02 7 4.04 7 2 7 C2 7.99 2 8.98 2 10 C3.98 10 5.96 10 8 10 C8 10.66 8 11.32 8 12 C5.36 12 2.72 12 0 12 C0 8.04 0 4.08 0 0 Z " fill="#16120C" transform="translate(10,26)"/>
<path d="M0 0 C0.66 0 1.32 0 2 0 C2 0.99 2 1.98 2 3 C3.32 3.33 4.64 3.66 6 4 C5.360625 4.12375 4.72125 4.2475 4.0625 4.375 C3.0415625 4.684375 3.0415625 4.684375 2 5 C1.67 5.66 1.34 6.32 1 7 C0.34 7 -0.32 7 -1 7 C-0.67 4.69 -0.34 2.38 0 0 Z " fill="#16120C" transform="translate(22,31)"/>
<path d="M0 0 C2.31 0 4.62 0 7 0 C6.67 1.32 6.34 2.64 6 4 C4.02 3.34 2.04 2.68 0 2 C0 1.34 0 0.68 0 0 Z " fill="#A47524" transform="translate(37,28)"/>
<path d="M0 0 C3 1 3 1 3 1 Z " fill="#E9B831" transform="translate(41,63)"/>
<path d="M0 0 C3 1 3 1 3 1 Z " fill="#E96331" transform="translate(20,63)"/>
<path d="M0 0 C0.33 0.66 0.66 1.32 1 2 C0.34 1.67 -0.32 1.34 -1 1 C-0.67 0.67 -0.34 0.34 0 0 Z " fill="#7F542A" transform="translate(56,53)"/>
<path d="" fill="#E97831" transform="translate(0,0)"/>
<path d="" fill="#C38765" transform="translate(0,0)"/>
<path d="M0 0 C3 1 3 1 3 1 Z " fill="#947F15" transform="translate(43,1)"/>
<path d="M0 0 C3 1 3 1 3 1 Z " fill="#7F631C" transform="translate(18,1)"/>
<path d="M0 0 C3 1 3 1 3 1 Z " fill="#E9BF3F" transform="translate(21,0)"/>
<path d="M0 0 C2 1 2 1 2 1 Z " fill="#9F7F1F" transform="translate(44,62)"/>
<path d="M0 0 C2 1 2 1 2 1 Z " fill="#DFBF1F" transform="translate(18,62)"/>
<path d="M0 0 C2 1 2 1 2 1 Z " fill="#FFD42A" transform="translate(46,61)"/>
<path d="M0 0 C2 1 2 1 2 1 Z " fill="#DFBF1F" transform="translate(16,61)"/>
<path d="M0 0 C2 1 2 1 2 1 Z " fill="#BFBF00" transform="translate(49,59)"/>
<path d="M0 0 C2 1 2 1 2 1 Z " fill="#D4D42A" transform="translate(13,59)"/>
<path d="" fill="#DF7F5F" transform="translate(0,0)"/>
<path d="M0 0 C2 1 2 1 2 1 Z " fill="#D4D42A" transform="translate(49,4)"/>
<path d="M0 0 C2 1 2 1 2 1 Z " fill="#7F552A" transform="translate(13,4)"/>
<path d="M0 0 C2 1 2 1 2 1 Z " fill="#D4552A" transform="translate(15,3)"/>
<path d="M0 0 C2 1 2 1 2 1 Z " fill="#DF3F1F" transform="translate(46,2)"/>
<path d="M0 0 C2 1 2 1 2 1 Z " fill="#B4B44A" transform="translate(41,0)"/>
<path d="" fill="#FFAA55" transform="translate(0,0)"/>
<path d="" fill="#FFAA55" transform="translate(0,0)"/>
<path d="" fill="#FFAA55" transform="translate(0,0)"/>
<path d="" fill="#AAAA55" transform="translate(0,0)"/>
<path d="" fill="#BFBF3F" transform="translate(0,0)"/>
<path d="" fill="#BF7F3F" transform="translate(0,0)"/>
<path d="" fill="#BF7F3F" transform="translate(0,0)"/>
<path d="" fill="#BF7F3F" transform="translate(0,0)"/>
<path d="" fill="#AAAA55" transform="translate(0,0)"/>
<path d="" fill="#BF7F3F" transform="translate(0,0)"/>
<path d="" fill="#BFBF3F" transform="translate(0,0)"/>
<path d="" fill="#BFBF3F" transform="translate(0,0)"/>
<path d="" fill="#BF7F3F" transform="translate(0,0)"/>
<path d="" fill="#BF7F3F" transform="translate(0,0)"/>
<path d="" fill="#BF7F3F" transform="translate(0,0)"/>
<path d="" fill="#AAAA55" transform="translate(0,0)"/>
<path d="" fill="#BFBF3F" transform="translate(0,0)"/>
<path d="" fill="#BF7F3F" transform="translate(0,0)"/>
<path d="" fill="#BFBF3F" transform="translate(0,0)"/>
<path d="" fill="#BFBF3F" transform="translate(0,0)"/>
<path d="" fill="#BF7F3F" transform="translate(0,0)"/>
<path d="" fill="#BFBF3F" transform="translate(0,0)"/>
<path d="" fill="#BFBF3F" transform="translate(0,0)"/>
<path d="" fill="#BFBF3F" transform="translate(0,0)"/>
<path d="" fill="#BF7F3F" transform="translate(0,0)"/>
<path d="" fill="#FFAA55" transform="translate(0,0)"/>
<path d="" fill="#AAAA55" transform="translate(0,0)"/>
<path d="" fill="#FF7F7F" transform="translate(0,0)"/>
<path d="" fill="#AAAA55" transform="translate(0,0)"/>
<path d="" fill="#FFAA55" transform="translate(0,0)"/>
</svg>
