<svg xmlns="http://www.w3.org/2000/svg" viewBox="0 0 839 285" width="839" height="285"><g transform="translate(20.00 211.90) scale(0.15000 -0.15000)" fill="#F5F3EE"><path d="M164.09912109375 518.49951171875Q164.09912109375 479.3994140625 183.8741455078125 450.6243896484375Q203.649169921875 421.849365234375 235.4241943359375 399.1243896484375Q267.19921875 376.3994140625 302.4742431640625 353.949462890625Q340.19921875 330.7745361328125 374.56170654296875 305.099609375Q408.9241943359375 279.4246826171875 431.4241943359375 245.4747314453125Q453.9241943359375 211.5247802734375 453.9241943359375 163.5247802734375Q453.9241943359375 112.449951171875 427.0743408203125 72.86248779296875Q400.2244873046875 33.2750244140625 352.68707275390625 10.63751220703125Q305.149658203125 -12 241.49951171875 -12Q213.69970703125 -12 184.2249755859375 -6.8250732421875Q154.750244140625 -1.650146484375 129.350341796875 6.93731689453125Q103.950439453125 15.5247802734375 88.10009765625 26.349853515625Q83.8250732421875 29.349853515625 81.23760986328125 33.1248779296875Q78.650146484375 36.89990234375 78.3751220703125 45.349853515625L72.0748291015625 196.3741455078125Q71.0748291015625 201.3741455078125 76.5748291015625 201.8741455078125Q82.0748291015625 202.3741455078125 83.0748291015625 198.3741455078125Q95.049560546875 167.649169921875 111.3994140625 134.38677978515625Q127.749267578125 101.1243896484375 149.69921875 73.2244873046875Q171.649169921875 45.3245849609375 200.33673095703125 27.649658203125Q229.0242919921875 9.9747314453125 266.3994140625 9.9747314453125Q291.599609375 9.9747314453125 314.7998046875 18.93731689453125Q338 27.89990234375 352.8751220703125 50.2750244140625Q367.750244140625 72.650146484375 367.750244140625 111.850341796875Q367.750244140625 159.400390625 346.61273193359375 192.6253662109375Q325.4752197265625 225.850341796875 292.4752197265625 250.80029296875Q259.4752197265625 275.750244140625 223.2001953125 298.2001953125Q188.2001953125 320.650146484375 155.9251708984375 344.73760986328125Q123.650146484375 368.8250732421875 103.51263427734375 400.3250732421875Q83.3751220703125 431.8250732421875 83.3751220703125 476.650146484375Q83.3751220703125 531.550048828125 113.36248779296875 566.7750244140625Q143.349853515625 602 189.9246826171875 619.0Q236.49951171875 636 285.1243896484375 636Q318.3741455078125 636 352.31146240234375 629.7750244140625Q386.248779296875 623.550048828125 409.9990234375 613.449951171875Q419.448974609375 609.7249755859375 422.2239990234375 604.8624877929688Q424.9990234375 600 424.9990234375 594.2750244140625L427.4742431640625 458.551025390625Q427.4742431640625 455.2760009765625 422.69921875 454.18853759765625Q417.9241943359375 453.10107421875 416.19921875 456.3760986328125Q411.29931640625 471.1263427734375 400.98687744140625 497.5262451171875Q390.6744384765625 523.9261474609375 373.08697509765625 551.1759033203125Q355.49951171875 578.4256591796875 328.18707275390625 597.450439453125Q300.8746337890625 616.4752197265625 261.9747314453125 616.4752197265625Q232.0242919921875 616.4752197265625 210.149169921875 604.2750244140625Q188.2740478515625 592.0748291015625 176.18658447265625 570.5121459960938Q164.09912109375 548.949462890625 164.09912109375 518.49951171875Z" transform="translate(0 0)"/><path d="M185.3751220703125 -12Q161.3751220703125 -12 137.7001953125 -4.13751220703125Q114.0252685546875 3.7249755859375 98.48785400390625 23.03741455078125Q82.950439453125 42.349853515625 82.950439453125 76.69970703125V303.10009765625Q82.950439453125 325.2001953125 78.50048828125 337.06268310546875Q74.050537109375 348.9251708984375 63.050537109375 353.51263427734375Q52.050537109375 358.10009765625 31.6754150390625 358.10009765625Q27.950439453125 358.10009765625 27.950439453125 366.2750244140625Q27.950439453125 374.449951171875 31.6754150390625 374.449951171875Q79.10009765625 375.89990234375 108.76239013671875 396.53741455078125Q138.4246826171875 417.1749267578125 150.0242919921875 454.9747314453125Q151.4742431640625 458.69970703125 158.249267578125 458.69970703125Q165.0242919921875 458.69970703125 165.0242919921875 454.9747314453125V109.9747314453125Q165.0242919921875 69.4246826171875 185.5242919921875 51.46209716796875Q206.0242919921875 33.49951171875 238.7745361328125 33.49951171875Q262.8746337890625 33.49951171875 283.3746337890625 42.7244873046875Q303.8746337890625 51.949462890625 317.599609375 62.6744384765625Q320.8746337890625 65.3994140625 324.96209716796875 60.8994140625Q329.049560546875 56.3994140625 325.049560546875 53.3994140625Q288.049560546875 19.4246826171875 255.33721923828125 3.71234130859375Q222.6248779296875 -12 185.3751220703125 -12ZM294.3245849609375 335.8250732421875Q253.8746337890625 345.10009765625 216.19970703125 348.3250732421875Q178.5247802734375 351.550048828125 136.349853515625 351.550048828125V376.1749267578125Q176.7998046875 376.1749267578125 215.4747314453125 379.1749267578125Q254.149658203125 382.1749267578125 298.049560546875 386.1749267578125Q300.3245849609375 386.1749267578125 302.68707275390625 378.949951171875Q305.049560546875 371.7249755859375 305.049560546875 362.449951171875Q305.049560546875 353.2750244140625 301.68707275390625 344.050048828125Q298.3245849609375 334.8250732421875 294.3245849609375 335.8250732421875Z" transform="translate(507 0)"/><path d="M154.949462890625 271 148.049560546875 283.1749267578125Q186.49951171875 328.449951171875 212.53692626953125 352.58746337890625Q238.5743408203125 376.7249755859375 257.0242919921875 386.2249755859375Q275.4742431640625 395.7249755859375 290.749267578125 395.7249755859375Q311.749267578125 395.7249755859375 333.56170654296875 381.46258544921875Q355.3741455078125 367.2001953125 355.3741455078125 344.6754150390625Q355.3741455078125 326.70068359375 344.249267578125 314.71331787109375Q333.1243896484375 302.7259521484375 313.3245849609375 302.7259521484375Q294.7998046875 302.7259521484375 284.849853515625 312.6258544921875Q274.89990234375 322.5257568359375 265.98736572265625 331.9256591796875Q257.0748291015625 341.3255615234375 240.7998046875 341.3255615234375Q233.249755859375 341.3255615234375 224.19970703125 336.550537109375Q215.149658203125 331.7755126953125 199.099609375 316.900390625Q183.049560546875 302.0252685546875 154.949462890625 271ZM40.9251708984375 0Q37.9251708984375 0 37.9251708984375 6.0Q37.9251708984375 12 40.9251708984375 12Q74.6754150390625 12 85.950439453125 26.08746337890625Q97.2254638671875 40.1749267578125 97.2254638671875 81V272.30029296875Q97.2254638671875 304.1253662109375 89.950439453125 318.900390625Q82.6754150390625 333.6754150390625 64.850341796875 333.6754150390625Q55.5753173828125 333.6754150390625 43.0252685546875 330.03790283203125Q30.4752197265625 326.400390625 14.650146484375 319.400390625Q10.650146484375 317.6754150390625 8.51263427734375 323.400390625Q6.3751220703125 329.1253662109375 8.9251708984375 330.400390625L140.2244873046875 394Q145.1243896484375 395.7249755859375 146.6744384765625 395.7249755859375Q156.5743408203125 395.7249755859375 167.43682861328125 372.68756103515625Q178.29931640625 349.650146484375 178.29931640625 306.30029296875V81Q178.29931640625 54.1749267578125 186.0242919921875 38.81243896484375Q193.749267578125 23.449951171875 213.79931640625 17.7249755859375Q233.849365234375 12 270.3245849609375 12Q274.049560546875 12 274.049560546875 6.0Q274.049560546875 0 270.3245849609375 0Q244.149658203125 0 210.33721923828125 1.0Q176.5247802734375 2 137.89990234375 2Q110.7249755859375 2 85.41253662109375 1.0Q60.10009765625 0 40.9251708984375 0Z" transform="translate(844 0)"/><path d="M317.349853515625 -6Q313.349853515625 -8 307.89990234375 -8Q291.550048828125 -8 275.750244140625 15.1749267578125Q259.950439453125 38.349853515625 259.950439453125 81.9747314453125V258.30029296875Q259.950439453125 321.0252685546875 247.33770751953125 349.01263427734375Q234.7249755859375 377 207.89990234375 377Q182.89990234375 377 169.2998046875 362.60009765625Q155.69970703125 348.2001953125 150.099609375 329.750244140625Q144.49951171875 311.30029296875 142.6744384765625 297.750244140625Q139.949462890625 272.5257568359375 127.69970703125 259.750732421875Q115.449951171875 246.9757080078125 91.8250732421875 246.9757080078125Q68.850341796875 246.9757080078125 58.81292724609375 257.4256591796875Q48.7755126953125 267.8756103515625 48.7755126953125 282.2254638671875Q48.7755126953125 304.30029296875 69.31292724609375 324.7001953125Q89.850341796875 345.10009765625 121.33770751953125 361.18756103515625Q152.8250732421875 377.2750244140625 186.81243896484375 386.63751220703125Q220.7998046875 396 247.249755859375 396Q288.249755859375 396 314.49951171875 369.86248779296875Q340.749267578125 343.7249755859375 340.749267578125 288.30029296875V108Q340.749267578125 77.0748291015625 350.69921875 60.93731689453125Q360.649169921875 44.7998046875 380.19921875 44.7998046875Q395.5743408203125 44.7998046875 416.349853515625 54Q420.6248779296875 56 422.98736572265625 50.5Q425.349853515625 45 420.349853515625 43ZM129.4752197265625 -7Q87.400390625 -7 66.450439453125 12.7750244140625Q45.50048828125 32.550048828125 45.50048828125 63.89990234375Q45.50048828125 92.49951171875 60.88775634765625 109.58697509765625Q76.2750244140625 126.6744384765625 103.21234130859375 138.41204833984375Q130.149658203125 150.149658203125 163.0748291015625 161.9747314453125L269.950439453125 201.7249755859375L273.400390625 187.2750244140625L199.6239013671875 156.049560546875Q188.048583984375 151.6744384765625 174.148681640625 144.349365234375Q160.248779296875 137.0242919921875 150.448974609375 125.0743408203125Q140.649169921875 113.1243896484375 140.649169921875 93.4246826171875Q140.649169921875 68.5247802734375 156.96160888671875 54.51214599609375Q173.2740478515625 40.49951171875 193.29931640625 40.49951171875Q202.1243896484375 40.49951171875 210.86199951171875 42.91204833984375Q219.599609375 45.3245849609375 231.5247802734375 53.149658203125L286.2001953125 88.5247802734375L287.4752197265625 73.6248779296875L216.10009765625 24.449951171875Q193.2750244140625 7.7249755859375 173.550048828125 0.36248779296875Q153.8250732421875 -7 129.4752197265625 -7Z" transform="translate(1218 0)"/><path d="M185.3751220703125 -12Q161.3751220703125 -12 137.7001953125 -4.13751220703125Q114.0252685546875 3.7249755859375 98.48785400390625 23.03741455078125Q82.950439453125 42.349853515625 82.950439453125 76.69970703125V303.10009765625Q82.950439453125 325.2001953125 78.50048828125 337.06268310546875Q74.050537109375 348.9251708984375 63.050537109375 353.51263427734375Q52.050537109375 358.10009765625 31.6754150390625 358.10009765625Q27.950439453125 358.10009765625 27.950439453125 366.2750244140625Q27.950439453125 374.449951171875 31.6754150390625 374.449951171875Q79.10009765625 375.89990234375 108.76239013671875 396.53741455078125Q138.4246826171875 417.1749267578125 150.0242919921875 454.9747314453125Q151.4742431640625 458.69970703125 158.249267578125 458.69970703125Q165.0242919921875 458.69970703125 165.0242919921875 454.9747314453125V109.9747314453125Q165.0242919921875 69.4246826171875 185.5242919921875 51.46209716796875Q206.0242919921875 33.49951171875 238.7745361328125 33.49951171875Q262.8746337890625 33.49951171875 283.3746337890625 42.7244873046875Q303.8746337890625 51.949462890625 317.599609375 62.6744384765625Q320.8746337890625 65.3994140625 324.96209716796875 60.8994140625Q329.049560546875 56.3994140625 325.049560546875 53.3994140625Q288.049560546875 19.4246826171875 255.33721923828125 3.71234130859375Q222.6248779296875 -12 185.3751220703125 -12ZM294.3245849609375 335.8250732421875Q253.8746337890625 345.10009765625 216.19970703125 348.3250732421875Q178.5247802734375 351.550048828125 136.349853515625 351.550048828125V376.1749267578125Q176.7998046875 376.1749267578125 215.4747314453125 379.1749267578125Q254.149658203125 382.1749267578125 298.049560546875 386.1749267578125Q300.3245849609375 386.1749267578125 302.68707275390625 378.949951171875Q305.049560546875 371.7249755859375 305.049560546875 362.449951171875Q305.049560546875 353.2750244140625 301.68707275390625 344.050048828125Q298.3245849609375 334.8250732421875 294.3245849609375 335.8250732421875Z" transform="translate(1638 0)"/><path d="M229.49951171875 -12Q166.149658203125 -12 122.2998046875 15.13751220703125Q78.449951171875 42.2750244140625 55.91253662109375 86.63751220703125Q33.3751220703125 131 33.3751220703125 181.449951171875Q33.3751220703125 241 62.10009765625 289.13751220703125Q90.8250732421875 337.2750244140625 140.86248779296875 366.13751220703125Q190.89990234375 395 254.149658203125 395Q312.599609375 395 346.03692626953125 366.89990234375Q379.4742431640625 338.7998046875 379.4742431640625 280.2750244140625Q379.4742431640625 267.2750244140625 377.33673095703125 259.10009765625Q375.19921875 250.9251708984375 368.19921875 250.9251708984375H285.6754150390625Q288.50048828125 309.30029296875 272.33770751953125 342.150146484375Q256.1749267578125 375 217.7998046875 375Q173.3994140625 375 147.83673095703125 333.58746337890625Q122.2740478515625 292.1749267578125 122.2740478515625 222.5247802734375Q122.2740478515625 165.0748291015625 140.2740478515625 122.38726806640625Q158.2740478515625 79.69970703125 193.2740478515625 56.01214599609375Q228.2740478515625 32.3245849609375 278.9990234375 32.3245849609375Q310.3741455078125 32.3245849609375 331.4241943359375 40.649658203125Q352.4742431640625 48.9747314453125 376.3741455078125 61.9747314453125Q378.3741455078125 63.9747314453125 381.8741455078125 59.83721923828125Q385.3741455078125 55.69970703125 383.3741455078125 52.69970703125Q346.9241943359375 17.6248779296875 309.249267578125 2.81243896484375Q271.5743408203125 -12 229.49951171875 -12ZM93.3245849609375 249.9251708984375 92.3245849609375 267 313.7998046875 271V250.9251708984375Z" transform="translate(1975 0)"/><path d="M181.1749267578125 -281.449951171875Q111.89990234375 -281.449951171875 69.68756103515625 -249.949951171875Q27.4752197265625 -218.449951171875 27.4752197265625 -168.8250732421875Q27.4752197265625 -131.3245849609375 57.20068359375 -92.71185302734375Q86.9261474609375 -54.09912109375 158.0262451171875 -11.3741455078125L168.30126953125 -22.9241943359375Q150.5257568359375 -33.1243896484375 136.30029296875 -46.549560546875Q122.0748291015625 -59.9747314453125 114.13702392578125 -78.58746337890625Q106.19921875 -97.2001953125 106.19921875 -123.150634765625Q106.19921875 -164.5753173828125 123.59912109375 -192.7001953125Q140.9990234375 -220.8250732421875 170.13653564453125 -235.41253662109375Q199.2740478515625 -250 234.849365234375 -250Q291.1749267578125 -250 326.350341796875 -216.6248779296875Q361.5257568359375 -183.249755859375 361.5257568359375 -125.7745361328125Q361.5257568359375 -81.8746337890625 341.750732421875 -63.149658203125Q321.9757080078125 -44.4246826171875 287.4256591796875 -39.9246826171875Q252.8756103515625 -35.4246826171875 207.050537109375 -35.4246826171875Q169.750244140625 -34.69970703125 134.78765869140625 -30.11224365234375Q99.8250732421875 -25.5247802734375 77.46258544921875 -9.43731689453125Q55.10009765625 6.650146484375 55.10009765625 41.10009765625Q55.10009765625 75.8250732421875 78.63751220703125 106.21234130859375Q102.1749267578125 136.599609375 151.2244873046875 163.9747314453125L160.7745361328125 156.8746337890625Q139.3994140625 142.3994140625 129.3994140625 127.349365234375Q119.3994140625 112.29931640625 119.3994140625 92.1243896484375Q119.3994140625 66.3245849609375 134.349365234375 54.3245849609375Q149.29931640625 42.3245849609375 178.6744384765625 38.99951171875Q208.049560546875 35.6744384765625 250.8250732421875 34.949462890625Q281.5247802734375 34.949462890625 313.06219482421875 32.86199951171875Q344.599609375 30.7745361328125 371.8746337890625 21.3245849609375Q399.149658203125 11.8746337890625 415.83721923828125 -9.850341796875Q432.5247802734375 -31.5753173828125 432.5247802734375 -70.850341796875Q432.5247802734375 -113.30029296875 412.38726806640625 -151.11273193359375Q392.249755859375 -188.9251708984375 357.249755859375 -218.23760986328125Q322.249755859375 -247.550048828125 276.66229248046875 -264.5Q231.0748291015625 -281.449951171875 181.1749267578125 -281.449951171875ZM202.30029296875 133Q154.30029296875 133 119.71282958984375 152.31243896484375Q85.1253662109375 171.6248779296875 66.400390625 202.21234130859375Q47.6754150390625 232.7998046875 47.6754150390625 266.349853515625Q47.6754150390625 306.69970703125 72.33770751953125 335.11224365234375Q97 363.5247802734375 135.98736572265625 378.26239013671875Q174.9747314453125 393 217.449951171875 393Q265.9251708984375 393 300.23760986328125 375.53741455078125Q334.550048828125 358.0748291015625 353.26239013671875 329.5247802734375Q371.9747314453125 300.9747314453125 371.9747314453125 266.89990234375Q371.9747314453125 227.3751220703125 347.949951171875 197.3751220703125Q323.9251708984375 167.3751220703125 285.21282958984375 150.18756103515625Q246.50048828125 133 202.30029296875 133ZM226.10009765625 149.89990234375Q250.2254638671875 149.89990234375 268.150634765625 170.58746337890625Q286.0758056640625 191.2750244140625 286.0758056640625 241.10009765625Q286.0758056640625 286 271.30078125 315.63751220703125Q256.5257568359375 345.2750244140625 233.78814697265625 360.3250732421875Q211.050537109375 375.3751220703125 187.4752197265625 375.3751220703125Q160.449951171875 375.3751220703125 146.51214599609375 354.96258544921875Q132.5743408203125 334.550048828125 132.5743408203125 294.149658203125Q132.5743408203125 249.7745361328125 146.58697509765625 217.46209716796875Q160.599609375 185.149658203125 182.0247802734375 167.5247802734375Q203.449951171875 149.89990234375 226.10009765625 149.89990234375ZM301.7249755859375 314.650146484375 303.1749267578125 347.2001953125Q334.89990234375 370.2750244140625 364.98736572265625 382.86248779296875Q395.0748291015625 395.449951171875 431.5247802734375 395.449951171875Q435.69970703125 395.449951171875 437.19970703125 387.7249755859375Q438.69970703125 380 438.69970703125 369.3751220703125Q438.69970703125 356.4752197265625 435.11224365234375 340.98785400390625Q431.5247802734375 325.50048828125 427.5247802734375 328.2254638671875Q412.550048828125 334.850341796875 394.10009765625 339.6253662109375Q375.650146484375 344.400390625 356 344.400390625Q343.7249755859375 344.400390625 332.36248779296875 342.76287841796875Q321 341.1253662109375 308.550048828125 336.6754150390625Z" transform="translate(2389 0)"/></g><ellipse cx="609.1" cy="165" rx="141.04" ry="84.62" fill="none" stroke="#C9A24A" stroke-width="3.44"/><ellipse cx="638.34" cy="152.62" rx="172.00" ry="103.20" fill="none" stroke="#C9A24A" stroke-width="3.44"/><circle cx="662.28" cy="50.42" r="12.90" fill="#C9A24A"/><circle cx="787.30" cy="101.02" r="7.74" fill="#C9A24A"/><circle cx="757.82" cy="226.85" r="10.32" fill="#C9A24A"/><circle cx="521.04" cy="228.09" r="9.46" fill="#C9A24A"/><g transform="translate(490.63 197.54) scale(0.04368 -0.04368)" fill="#C9A24A"><path d="M149.76123046875 0V1490H1117.518798828125V1265.122314453125H416.798095703125V863.35888671875H1065.9989013671875V641.361083984375H416.798095703125V224.877685546875H1121.8389892578125V0Z" transform="translate(0 0)"/><path d="M49.840087890625 0 569.9609375 1490H909.47607421875L1440.5567626953125 0H1147.6805419921875L883.158447265625 773.844482421875Q844.4388427734375 894.0029296875 802.1589965820312 1045.3017578125Q759.879150390625 1196.6005859375 708.8389892578125 1390.200439453125H764.9981689453125Q715.3179931640625 1195.320556640625 674.5580444335938 1042.74169921875Q633.798095703125 890.162841796875 597.718505859375 773.844482421875L341.83642578125 0ZM352.798828125 369.201904296875V584.159912109375H1137.5980224609375V369.201904296875Z" transform="translate(1270.72 0)"/><path d="M673.1993408203125 -23.1201171875Q500.31982421875 -23.1201171875 372.460205078125 30.85980224609375Q244.6005859375 84.8397216796875 172.9207763671875 187.87933349609375Q101.240966796875 290.9189453125 95.120849609375 438.238037109375H358.1580810546875Q364.7181396484375 359.997802734375 407.05841064453125 308.19769287109375Q449.398681640625 256.3975830078125 518.3389892578125 230.79754638671875Q587.279296875 205.197509765625 671.0394287109375 205.197509765625Q759.0799560546875 205.197509765625 826.4404907226562 232.0777587890625Q893.801025390625 258.9580078125 931.9813842773438 307.61846923828125Q970.1617431640625 356.2789306640625 970.1617431640625 420.1595458984375Q970.1617431640625 478.4801025390625 936.50146484375 516.4603881835938Q902.8411865234375 554.440673828125 842.3209228515625 580.560791015625Q781.8006591796875 606.680908203125 700.720703125 626.8809814453125L531.520263671875 671.041259765625Q345.4005126953125 718.8013916015625 240.54071044921875 816.1412963867188Q135.680908203125 913.481201171875 135.680908203125 1071.2008056640625Q135.680908203125 1202.9605712890625 206.9207763671875 1301.7803955078125Q278.16064453125 1400.6002197265625 401.18035888671875 1455.3001098632812Q524.2000732421875 1510 680.07958984375 1510Q839.319091796875 1510 958.9788208007812 1454.9401245117188Q1078.6385498046875 1399.8802490234375 1146.2984619140625 1303.1805419921875Q1213.9583740234375 1206.4808349609375 1216.87841796875 1081.601318359375H958.161376953125Q948.041259765625 1177.641845703125 872.3406372070312 1230.3021240234375Q796.6400146484375 1282.96240234375 676.239501953125 1282.96240234375Q592.47900390625 1282.96240234375 531.6785278320312 1257.5821533203125Q470.8780517578125 1232.201904296875 438.437744140625 1187.9614868164062Q405.9974365234375 1143.7210693359375 405.9974365234375 1087.04052734375Q405.9974365234375 1024.5198974609375 444.4178466796875 984.57958984375Q482.8382568359375 944.6392822265625 541.4185791015625 920.6591796875Q599.9989013671875 896.6790771484375 659.7586669921875 881.6790771484375L799.0390625 846.078857421875Q881.7181396484375 826.47900390625 959.9779052734375 793.0792236328125Q1038.2376708984375 759.679443359375 1100.8178100585938 709.2196044921875Q1163.39794921875 658.759765625 1200.13818359375 587.0797729492188Q1236.87841796875 515.3997802734375 1236.87841796875 418.239501953125Q1236.87841796875 287.2398681640625 1170.1385498046875 187.61993408203125Q1103.398681640625 88 977.35888671875 32.43994140625Q851.319091796875 -23.1201171875 673.1993408203125 -23.1201171875Z" transform="translate(2791.44 0)"/><path d="M149.76123046875 0V1490H1117.518798828125V1265.122314453125H416.798095703125V863.35888671875H1065.9989013671875V641.361083984375H416.798095703125V224.877685546875H1121.8389892578125V0Z" transform="translate(4154.16 0)"/></g></svg>